<svg width="207" height="48" viewBox="0 0 207 48" fill="none" xmlns="http://www.w3.org/2000/svg">
<path d="M29.1282 10.3959L20.7442 10.9118C20.6009 10.1952 20.2928 9.55033 19.8198 8.97707C19.3469 8.38947 18.7235 7.92369 17.9496 7.57974C17.19 7.22145 16.2799 7.0423 15.2194 7.0423C13.8006 7.0423 12.6039 7.34327 11.6293 7.94519C10.6548 8.53279 10.1675 9.32102 10.1675 10.3099C10.1675 11.0981 10.4828 11.7646 11.1134 12.3092C11.744 12.8538 12.826 13.2909 14.3595 13.6205L20.3358 14.8243C23.546 15.4836 25.9394 16.5441 27.5159 18.006C29.0924 19.4678 29.8806 21.3882 29.8806 23.7673C29.8806 25.9313 29.2428 27.8303 27.9673 29.4641C26.7062 31.0979 24.972 32.3734 22.765 33.2906C20.5722 34.1935 18.0427 34.6449 15.1764 34.6449C10.8053 34.6449 7.32269 33.7349 4.72868 31.9148C2.14899 30.0803 0.63701 27.5866 0.192732 24.4337L9.20013 23.9607C9.47243 25.2936 10.1317 26.3111 11.1779 27.0134C12.2241 27.7013 13.5641 28.0452 15.1979 28.0452C16.803 28.0452 18.0929 27.7371 19.0674 27.1208C20.0563 26.4903 20.5579 25.6805 20.5722 24.6916C20.5579 23.8604 20.2068 23.1797 19.5189 22.6494C18.8309 22.1048 17.7704 21.6892 16.3373 21.4025L10.619 20.2632C7.39435 19.6183 4.99381 18.5004 3.41734 16.9096C1.85519 15.3188 1.07412 13.2909 1.07412 10.8258C1.07412 8.70476 1.64739 6.87749 2.79391 5.34401C3.95477 3.81053 5.5814 2.62818 7.67381 1.79694C9.78056 0.965714 12.2456 0.550099 15.0689 0.550099C19.2394 0.550099 22.5213 1.43149 24.9147 3.19427C27.3224 4.95706 28.7269 7.3576 29.1282 10.3959ZM37.1934 34.6234C35.0866 34.6234 33.2092 34.258 31.561 33.5271C29.9129 32.7818 28.6087 31.6855 27.6485 30.238C26.7026 28.7761 26.2297 26.956 26.2297 24.7776C26.2297 22.9432 26.5665 21.4025 27.2401 20.1557C27.9137 18.9088 28.8309 17.9056 29.9917 17.1461C31.1526 16.3865 32.4711 15.8132 33.9473 15.4263C35.4377 15.0393 36.9999 14.767 38.6337 14.6094C40.5541 14.4087 42.1019 14.2224 43.2771 14.0504C44.4523 13.8641 45.305 13.5918 45.8353 13.2335C46.3656 12.8753 46.6307 12.345 46.6307 11.6427V11.5138C46.6307 10.1523 46.2008 9.09888 45.3409 8.35364C44.4953 7.6084 43.2914 7.23578 41.7293 7.23578C40.0812 7.23578 38.7698 7.60123 37.7953 8.33214C36.8207 9.04872 36.1758 9.95161 35.8605 11.0408L27.3906 10.3529C27.8205 8.34648 28.6661 6.61235 29.9272 5.15053C31.1884 3.67438 32.8151 2.54218 34.8071 1.75395C36.8136 0.951382 39.1353 0.550099 41.7723 0.550099C43.6067 0.550099 45.3624 0.765072 47.0391 1.19502C48.7303 1.62497 50.2279 2.29138 51.5321 3.19427C52.8506 4.09716 53.8896 5.25802 54.6492 6.67685C55.4088 8.08134 55.7886 9.7653 55.7886 11.7287V34H47.1036V29.4211H46.8457C46.3154 30.4529 45.606 31.363 44.7174 32.1512C43.8289 32.9251 42.7612 33.5342 41.5143 33.9785C40.2675 34.4084 38.8272 34.6234 37.1934 34.6234ZM39.816 28.3032C41.1632 28.3032 42.3527 28.0381 43.3846 27.5078C44.4165 26.9632 45.2262 26.2323 45.8138 25.3151C46.4014 24.3978 46.6952 23.3588 46.6952 22.1979V18.6939C46.4086 18.8802 46.0144 19.0522 45.5128 19.2098C45.0256 19.3531 44.4738 19.4893 43.8575 19.6183C43.2413 19.7329 42.625 19.8404 42.0088 19.9407C41.3925 20.0267 40.8336 20.1055 40.332 20.1772C39.2571 20.3348 38.3184 20.5856 37.5158 20.9296C36.7132 21.2736 36.0898 21.7393 35.6455 22.3269C35.2013 22.9002 34.9791 23.6168 34.9791 24.4767C34.9791 25.7235 35.4306 26.6766 36.3335 27.3358C37.2507 27.9807 38.4115 28.3032 39.816 28.3032ZM64.1816 14.9103V34H55.0237V0.980045H63.7516V6.80583H64.1386C64.8695 4.8854 66.0948 3.36625 67.8146 2.24839C69.5344 1.1162 71.6197 0.550099 74.0704 0.550099C76.3634 0.550099 78.3627 1.0517 80.0681 2.05491C81.7736 3.05812 83.0993 4.49128 84.0451 6.35439C84.991 8.20316 85.464 10.4102 85.464 12.9756V34H76.3061V14.6094C76.3204 12.5886 75.8045 11.0121 74.7583 9.87996C73.7121 8.73343 72.2718 8.16017 70.4373 8.16017C69.2048 8.16017 68.1156 8.4253 67.1697 8.95557C66.2382 9.48584 65.5072 10.2597 64.977 11.2773C64.461 12.2805 64.1959 13.4915 64.1816 14.9103ZM99.6881 47.0704C96.7215 47.0704 94.1776 46.6619 92.0566 45.845C89.9498 45.0425 88.273 43.9461 87.0262 42.556C85.7793 41.1658 84.9696 39.6036 84.597 37.8695L93.0669 36.7302C93.3249 37.3894 93.7334 38.0057 94.2923 38.5789C94.8512 39.1522 95.5893 39.6108 96.5065 39.9548C97.4381 40.3131 98.5703 40.4922 99.9031 40.4922C101.895 40.4922 103.536 40.0049 104.826 39.0304C106.13 38.0702 106.782 36.4579 106.782 34.1935V28.1527H106.395C105.994 29.0699 105.392 29.937 104.59 30.7539C103.787 31.5708 102.755 32.2372 101.494 32.7532C100.233 33.2691 98.7279 33.5271 96.9795 33.5271C94.5001 33.5271 92.2429 32.9538 90.2078 31.8073C88.187 30.6464 86.5747 28.8765 85.3709 26.4974C84.1814 24.104 83.5866 21.0801 83.5866 17.4255C83.5866 13.685 84.1957 10.5607 85.4139 8.05268C86.6321 5.54465 88.2515 3.66722 90.2723 2.42037C92.3074 1.17352 94.5359 0.550099 96.958 0.550099C98.8067 0.550099 100.355 0.865393 101.601 1.49598C102.848 2.11224 103.851 2.88614 104.611 3.8177C105.385 4.73492 105.98 5.63781 106.395 6.52636H106.739V0.980045H115.833V34.3225C115.833 37.1314 115.145 39.4818 113.769 41.3736C112.393 43.2654 110.487 44.6842 108.051 45.6301C105.629 46.5903 102.841 47.0704 99.6881 47.0704ZM99.8816 26.6479C101.358 26.6479 102.605 26.2824 103.622 25.5515C104.654 24.8063 105.442 23.7458 105.987 22.3699C106.546 20.9798 106.825 19.3173 106.825 17.3825C106.825 15.4478 106.553 13.771 106.008 12.3522C105.464 10.919 104.676 9.8083 103.644 9.02006C102.612 8.23182 101.358 7.8377 99.8816 7.8377C98.3768 7.8377 97.1084 8.24615 96.0766 9.06305C95.0447 9.86562 94.2636 10.9835 93.7334 12.4166C93.2031 13.8498 92.938 15.5051 92.938 17.3825C92.938 19.2886 93.2031 20.9368 93.7334 22.3269C94.278 23.7028 95.059 24.7705 96.0766 25.53C97.1084 26.2753 98.3768 26.6479 99.8816 26.6479ZM124.666 34.6234C122.56 34.6234 120.682 34.258 119.034 33.5271C117.386 32.7818 116.082 31.6855 115.122 30.238C114.176 28.7761 113.703 26.956 113.703 24.7776C113.703 22.9432 114.039 21.4025 114.713 20.1557C115.387 18.9088 116.304 17.9056 117.465 17.1461C118.626 16.3865 119.944 15.8132 121.42 15.4263C122.911 15.0393 124.473 14.767 126.107 14.6094C128.027 14.4087 129.575 14.2224 130.75 14.0504C131.925 13.8641 132.778 13.5918 133.308 13.2335C133.839 12.8753 134.104 12.345 134.104 11.6427V11.5138C134.104 10.1523 133.674 9.09888 132.814 8.35364C131.968 7.6084 130.764 7.23578 129.202 7.23578C127.554 7.23578 126.243 7.60123 125.268 8.33214C124.294 9.04872 123.649 9.95161 123.334 11.0408L114.864 10.3529C115.294 8.34648 116.139 6.61235 117.4 5.15053C118.661 3.67438 120.288 2.54218 122.28 1.75395C124.287 0.951382 126.608 0.550099 129.245 0.550099C131.08 0.550099 132.835 0.765072 134.512 1.19502C136.203 1.62497 137.701 2.29138 139.005 3.19427C140.324 4.09716 141.363 5.25802 142.122 6.67685C142.882 8.08134 143.262 9.7653 143.262 11.7287V34H134.577V29.4211H134.319C133.788 30.4529 133.079 31.363 132.19 32.1512C131.302 32.9251 130.234 33.5342 128.987 33.9785C127.74 34.4084 126.3 34.6234 124.666 34.6234ZM127.289 28.3032C128.636 28.3032 129.826 28.0381 130.858 27.5078C131.889 26.9632 132.699 26.2323 133.287 25.3151C133.874 24.3978 134.168 23.3588 134.168 22.1979V18.6939C133.882 18.8802 133.487 19.0522 132.986 19.2098C132.499 19.3531 131.947 19.4893 131.331 19.6183C130.714 19.7329 130.098 19.8404 129.482 19.9407C128.866 20.0267 128.307 20.1055 127.805 20.1772C126.73 20.3348 125.791 20.5856 124.989 20.9296C124.186 21.2736 123.563 21.7393 123.119 22.3269C122.674 22.9002 122.452 23.6168 122.452 24.4767C122.452 25.7235 122.904 26.6766 123.806 27.3358C124.724 27.9807 125.885 28.3032 127.289 28.3032ZM142.497 34V0.980045H151.225V6.80583H151.612C152.299 4.87107 153.446 3.34475 155.051 2.22689C156.656 1.10903 158.577 0.550099 160.812 0.550099C163.077 0.550099 165.004 1.1162 166.595 2.24839C168.186 3.36625 169.247 4.8854 169.777 6.80583H170.121C170.794 4.91406 172.013 3.40208 173.775 2.26989C175.552 1.12336 177.652 0.550099 180.074 0.550099C183.155 0.550099 185.656 1.53181 187.577 3.49524C189.511 5.44433 190.479 8.21033 190.479 11.7932V34H181.342V13.599C181.342 11.7646 180.855 10.3887 179.881 9.47151C178.906 8.55428 177.688 8.09567 176.226 8.09567C174.564 8.09567 173.267 8.62594 172.335 9.68648C171.403 10.7327 170.938 12.1157 170.938 13.8355V34H162.059V13.4055C162.059 11.7861 161.594 10.4962 160.662 9.536C159.745 8.57578 158.534 8.09567 157.029 8.09567C156.011 8.09567 155.094 8.35364 154.277 8.86958C153.475 9.37118 152.837 10.0806 152.364 10.9978C151.891 11.9007 151.655 12.9612 151.655 14.1794V34H142.497ZM201.337 34.5589C199.918 34.5589 198.7 34.0573 197.682 33.0541C196.679 32.0366 196.178 30.8184 196.178 29.3996C196.178 27.9951 196.679 26.7912 197.682 25.788C198.7 24.7848 199.918 24.2832 201.337 24.2832C202.713 24.2832 203.917 24.7848 204.948 25.788C205.98 26.7912 206.496 27.9951 206.496 29.3996C206.496 30.3454 206.253 31.2125 205.765 32.0007C205.292 32.7747 204.669 33.3981 203.895 33.871C203.121 34.3296 202.268 34.5589 201.337 34.5589Z" fill="#915EFF"/>
</svg>
